<?xml version="1.0" encoding="utf-8"?>
<svg version="1.1" xmlns:xlink="http://www.w3.org/1999/xlink" width="150px" height="150px" xmlns="http://www.w3.org/2000/svg">
  <g transform="matrix(1 0 0 1 -28 -59 )">
    <path d="M 28 59  L 178 59  L 178 209  L 28 209  L 28 59  " fill-rule="nonzero" fill="#cccccc" stroke="none" />
    <path d="M 39 70  L 167 70  L 167 198  L 39 198  L 39 70  " fill-rule="nonzero" fill="#ffffff" stroke="none" />
    <path d="M 117.25 104  C 110.95 104  106 99.05  106 92.75  C 106 86.45  110.95 81.5  117.25 81.5  C 123.55 81.5  128.5 86.45  128.5 92.75  C 128.5 99.05  123.55 104  117.25 104  " fill-rule="nonzero" fill="#cccccc" stroke="none" />
    <path d="M 43 194  L 43 128  L 73 98  L 115 122  L 139 116  L 163 122  L 163 194  L 43 194  " fill-rule="nonzero" fill="#169bd5" stroke="none" />
  </g>
</svg>